# xmcd
#
# Track frame offsets: 
#        150
#        16746
#        34287
#        49884
#        68663
#        85419
#        102573
#        122092
#        140731
#        154607
#        170800
#        188660
#        206414
#        219546
#        235445
#        257171
#        274071
#        291356
#        307255
#        322911
#
# Disc length: 4546 seconds
#
# Revision: 0
# Processed by: cddbd v1.5.2PL0 Copyright (c) Steve Scherf et al.
# Submitted via: ExactAudioCopyFreeDBPlugin 1.0
#
DISCID=3311c014
DTITLE=Ray Dylan - Goeie Ou Country In Duet
DYEAR=2013
DGENRE=Country
TTITLE0=Ray Dylan feat. Nicholis Louw - Crossfire
TTITLE1=Ray Dylan feat. Charlize Berg - We've Got Tonight
TTITLE2=Ray Dylan feat. Bobby Angel - You Asked Me To
TTITLE3=Ray Dylan feat. Elizma Theron - Islands In The Stream
TTITLE4=Ray Dylan feat. Manie Jackson - Old Flames
TTITLE5=Ray Dylan feat. Monique - The Wedding Song
TTITLE6=Ray Dylan feat. Dusty Dixon - I Will Love You All My Life
TTITLE7=Ray Dylan feat. Andriëtte - My Broken Souvenirs
TTITLE8=Ray Dylan feat. Billy Forrest - I'm Crying My Heart Out Over Y
TTITLE8=ou
TTITLE9=Ray Dylan feat. Chereé Strydom - Lovin' Arms
TTITLE10=Ray Dylan feat. Lance James - Faded Love
TTITLE11=Ray Dylan feat. Elizma Theron - Need You Now
TTITLE12=Ray Dylan feat. Tommy Oliver - She's A Woman
TTITLE13=Ray Dylan feat. Dennis East - Dammit I love You
TTITLE14=Ray Dylan feat. Monique - So You Win Again
TTITLE15=Ray Dylan feat. Veronique Lalouette - From This Moment
TTITLE16=Ray Dylan feat. Clive Bruce - Mama's Don't Let Your Babies Gr
TTITLE16=ow Up To Be Cowboys
TTITLE17=Ray Dylan feat. NIcholis Louw - To All The Girls I've Loved B
TTITLE17=efore
TTITLE18=Ray Dylan feat. Elizma Theron - Ons Soek Net Country
TTITLE19=Ray Dylan feat. Dogters Van Man - Christmas Without You
EXTD=
EXTT0=
EXTT1=
EXTT2=
EXTT3=
EXTT4=
EXTT5=
EXTT6=
EXTT7=
EXTT8=
EXTT9=
EXTT10=
EXTT11=
EXTT12=
EXTT13=
EXTT14=
EXTT15=
EXTT16=
EXTT17=
EXTT18=
EXTT19=
PLAYORDER=
